<?xml version="1.0" standalone="no"?>
<!DOCTYPE svg PUBLIC "-//W3C//DTD SVG 20010904//EN"
 "http://www.w3.org/TR/2001/REC-SVG-20010904/DTD/svg10.dtd">
<svg version="1.0" xmlns="http://www.w3.org/2000/svg"
 width="245.000000pt" height="244.000000pt" viewBox="0 0 245.000000 244.000000"
 preserveAspectRatio="xMidYMid meet">

<g transform="translate(0.000000,244.000000) scale(0.100000,-0.100000)"
fill="#000000" stroke="none">
<path d="M1143 2295 c0 -27 2 -40 4 -27 3 15 11 22 28 22 17 0 25 -7 28 -22 2
-13 4 0 4 27 0 28 -2 40 -4 28 -3 -16 -11 -23 -28 -23 -17 0 -25 7 -28 23 -2
12 -4 0 -4 -28z"/>
<path d="M984 2306 c-3 -8 -4 -25 -2 -38 2 -19 9 -23 38 -23 28 0 36 4 38 22
3 18 0 20 -20 15 -18 -5 -20 -7 -5 -10 28 -6 19 -24 -10 -20 -34 4 -43 36 -17
55 16 12 17 13 1 13 -10 0 -20 -6 -23 -14z"/>
<path d="M1407 2313 c-7 -12 -20 -109 -14 -103 6 6 26 110 21 110 -1 0 -5 -3
-7 -7z"/>
<path d="M886 2260 l6 -35 -31 29 c-17 16 -34 27 -37 23 -3 -3 1 -25 10 -49
13 -35 15 -37 10 -10 -7 38 1 40 33 10 31 -29 36 -20 18 28 l-15 39 6 -35z"/>
<path d="M1591 2228 c-6 -17 -9 -34 -6 -36 3 -3 5 0 5 7 0 9 9 11 30 6 37 -8
54 20 25 41 -29 21 -42 17 -54 -18z m49 12 c11 -6 12 -12 4 -20 -14 -14 -44
-2 -37 16 6 16 12 17 33 4z"/>
<path d="M735 2203 c18 -42 25 -52 25 -34 0 14 -28 71 -35 71 -3 0 2 -17 10
-37z"/>
<path d="M602 2178 c-25 -25 -14 -41 24 -35 29 5 35 3 32 -11 -2 -9 -14 -19
-28 -23 -22 -6 -23 -7 -4 -8 26 -1 48 23 40 44 -4 10 -14 13 -36 9 -36 -8 -42
12 -7 26 13 5 16 9 7 9 -9 1 -21 -4 -28 -11z"/>
<path d="M1732 2178 c-7 -7 -12 -21 -12 -33 0 -46 48 -60 74 -23 20 28 20 33
0 52 -18 19 -45 21 -62 4z m56 -29 c3 -28 -16 -43 -43 -33 -31 12 -8 68 25 62
8 -2 16 -15 18 -29z"/>
<path d="M1878 2092 c-8 -9 -20 -26 -28 -37 -14 -18 -14 -19 2 -7 22 18 38 7
39 -26 2 -24 2 -24 6 -4 2 12 11 22 18 22 31 0 29 37 -4 57 -15 10 -22 9 -33
-5z m44 -34 c-11 -11 -42 1 -42 16 0 23 13 26 32 9 10 -9 15 -20 10 -25z"/>
<path d="M436 2015 c16 -40 15 -41 -27 -19 -17 8 -33 14 -35 12 -2 -2 17 -14
41 -26 25 -12 45 -19 45 -16 0 19 -24 84 -31 84 -4 0 -1 -16 7 -35z"/>
<path d="M2016 1999 c3 -6 -6 -24 -22 -40 -15 -16 -23 -29 -18 -29 6 0 21 11
34 25 19 20 26 23 39 13 9 -7 5 0 -8 15 -25 28 -38 36 -25 16z"/>
<path d="M290 1913 c1 -5 9 -23 19 -42 l18 -34 7 26 c4 19 13 27 29 28 17 0
14 3 -13 14 -41 16 -60 18 -60 8z m34 -9 c9 -3 13 -10 10 -15 -8 -14 -21 -11
-28 6 -6 17 -4 18 18 9z"/>
<path d="M2079 1869 c-19 -17 -25 -26 -15 -21 15 8 24 5 39 -12 l19 -21 -16
27 c-20 34 -3 48 26 21 21 -18 21 -18 9 4 -18 34 -25 34 -62 2z"/>
<path d="M195 1788 c-15 -22 -14 -24 12 -45 32 -26 52 -30 33 -8 -15 18 -14
19 25 33 24 8 26 11 9 11 -12 1 -24 8 -28 16 -8 22 -33 18 -51 -7z m40 2 c9
-15 -14 -40 -31 -33 -10 4 -11 10 -3 24 11 21 24 24 34 9z"/>
<path d="M2162 1754 c-37 -26 -23 -74 23 -74 43 0 59 44 27 73 -23 21 -22 21
-50 1z m54 -19 c8 -20 -13 -45 -38 -45 -24 0 -34 26 -18 45 16 19 49 19 56 0z"/>
<path d="M142 1667 c9 -7 24 -17 34 -23 12 -7 15 -16 11 -28 -7 -18 -12 -18
-62 -2 -11 4 -6 -1 12 -10 39 -21 63 -13 63 20 0 18 -9 30 -30 41 -35 18 -52
19 -28 2z"/>
<path d="M2229 1607 c-22 -10 -25 -16 -18 -34 10 -28 19 -30 12 -3 -4 14 3 23
28 34 19 8 27 14 19 14 -8 0 -27 -5 -41 -11z"/>
<path d="M743 1595 c-55 -24 -109 -87 -123 -144 -15 -62 -7 -111 25 -167 28
-47 56 -70 179 -144 148 -89 186 -132 186 -212 0 -84 -61 -138 -157 -138 -93
1 -172 60 -224 170 -23 50 -49 66 -49 33 0 -10 7 -71 17 -135 16 -118 26 -137
51 -98 14 24 48 25 112 6 25 -7 68 -17 97 -21 144 -19 283 91 283 225 0 99
-64 176 -219 268 -179 105 -230 177 -186 261 16 32 69 61 112 61 91 0 183 -71
217 -167 10 -30 24 -53 32 -53 17 0 17 -4 2 148 -11 124 -23 149 -48 102 -13
-25 -29 -25 -108 0 -74 23 -153 25 -199 5z"/>
<path d="M1443 1595 c-55 -24 -109 -87 -123 -144 -15 -62 -7 -111 25 -167 28
-47 56 -70 179 -144 148 -89 186 -132 186 -212 0 -84 -61 -138 -157 -138 -93
1 -172 60 -224 170 -23 50 -49 66 -49 33 0 -10 7 -71 17 -135 16 -118 26 -137
51 -98 14 24 48 25 112 6 137 -42 234 -25 311 52 96 97 91 222 -12 322 -24 23
-86 67 -138 98 -179 105 -230 177 -186 261 16 32 69 61 112 61 91 0 186 -73
217 -168 10 -30 24 -52 32 -52 17 0 17 -4 2 148 -11 124 -23 149 -48 102 -13
-25 -29 -25 -108 0 -74 23 -153 25 -199 5z"/>
<path d="M66 1502 c-2 -4 11 -20 29 -35 34 -27 59 -37 37 -15 -19 19 -14 38
11 48 18 7 13 9 -25 9 -26 1 -49 -3 -52 -7z m48 -17 c-5 -12 -10 -13 -20 -4
-19 15 -18 19 6 19 13 0 18 -5 14 -15z"/>
<path d="M2285 1483 c-11 -3 -24 -9 -30 -15 -11 -11 40 -1 65 13 13 7 13 8 0
8 -8 -1 -24 -3 -35 -6z"/>
<path d="M2280 1370 c-17 -33 4 -62 43 -58 25 2 33 8 35 26 7 48 -56 73 -78
32z m65 -20 c0 -20 -6 -26 -26 -28 -30 -4 -46 22 -28 45 20 23 54 12 54 -17z"/>
<path d="M37 1373 c-11 -11 -8 -51 5 -59 10 -7 32 14 41 40 3 8 8 7 17 -1 11
-10 11 -15 0 -28 -7 -8 -10 -18 -7 -21 9 -10 27 34 21 50 -9 23 -25 20 -52
-11 l-23 -28 5 33 c6 33 4 37 -7 25z"/>
<path d="M170 693 c0 -17 100 -176 148 -235 148 -185 360 -323 589 -385 90
-25 114 -27 293 -27 180 0 202 2 292 26 242 66 460 213 608 409 63 84 136 207
127 215 -2 3 -23 -29 -46 -71 -126 -234 -364 -432 -626 -522 -210 -71 -501
-71 -712 1 -265 90 -516 305 -637 544 -24 48 -36 63 -36 45z"/>
</g>
</svg>
